<?xml version="1.0" standalone="no"?>
<!DOCTYPE svg PUBLIC "-//W3C//DTD SVG 20010904//EN"
 "http://www.w3.org/TR/2001/REC-SVG-20010904/DTD/svg10.dtd">
<svg version="1.0" xmlns="http://www.w3.org/2000/svg"
 width="512.000000pt" height="512.000000pt" viewBox="0 0 512.000000 512.000000"
 preserveAspectRatio="xMidYMid meet">

<g transform="translate(0.000000,512.000000) scale(0.100000,-0.100000)"
fill="#9898ed" stroke="none">
<path d="M1267 4592 c-9 -10 -17 -28 -17 -39 0 -11 139 -254 310 -539 l310
-519 -48 -7 c-26 -4 -150 -14 -275 -23 -315 -22 -461 -40 -498 -62 -49 -29
-67 -70 -84 -189 -71 -523 -81 -1148 -25 -1694 34 -331 43 -361 108 -402 38
-23 93 -31 407 -58 400 -33 647 -43 1105 -43 509 0 809 14 1285 59 272 25 284
36 315 270 73 570 74 1258 0 1827 -21 162 -35 198 -90 230 -37 22 -179 40
-495 62 -126 9 -251 19 -277 23 l-48 7 310 519 c171 285 310 529 310 541 0 31
-33 57 -67 53 -26 -3 -56 -50 -359 -556 l-332 -554 -248 3 c-137 2 -274 3
-304 3 -30 0 -167 -1 -304 -3 l-248 -3 -332 554 c-314 524 -333 553 -362 556
-20 2 -36 -3 -47 -16z m1618 -1332 c145 -11 483 -47 523 -57 12 -3 27 -13 32
-22 12 -23 55 -321 71 -491 19 -197 16 -705 -5 -905 -26 -247 -56 -425 -76
-445 -18 -18 -74 -27 -342 -55 -377 -39 -895 -43 -1288 -10 -214 18 -428 43
-456 55 -18 7 -24 27 -42 142 -48 289 -56 406 -57 778 0 363 7 476 46 740 29
197 33 207 72 214 364 64 1041 89 1522 56z m1031 -179 c23 -10 54 -36 70 -57
25 -32 29 -47 29 -99 0 -52 -4 -67 -29 -99 -31 -42 -94 -75 -140 -76 -48 0
-115 38 -144 82 -56 86 -22 206 71 249 53 24 91 24 143 0z m20 -486 c48 -28
84 -91 84 -146 -1 -49 -32 -112 -70 -139 -40 -28 -126 -38 -170 -20 -72 30
-120 125 -100 200 30 113 155 164 256 105z m-1 -474 c60 -34 94 -114 81 -186
-8 -43 -59 -103 -103 -121 -73 -31 -164 -3 -209 63 -102 151 73 335 231 244z
m53 -500 c2 -13 -2 -28 -10 -32 -21 -14 -252 -11 -266 3 -16 16 -15 45 1 52 6
2 71 4 142 3 129 -2 130 -2 133 -26z m0 -243 c4 -36 -12 -40 -157 -36 -92 2
-116 6 -124 19 -6 9 -7 24 -4 33 6 15 23 16 144 14 l138 -3 3 -27z"/>
<path d="M2045 3200 c-263 -13 -641 -52 -657 -68 -8 -8 -42 -232 -60 -397 -17
-159 -18 -790 0 -940 7 -60 22 -176 34 -257 l21 -146 76 -11 c501 -73 1146
-79 1726 -16 178 20 193 23 199 43 9 30 45 294 58 427 19 197 16 703 -6 908
-16 161 -50 384 -58 393 -7 6 -331 42 -483 53 -202 15 -653 21 -850 11z m1060
-412 c10 -29 26 -208 37 -431 10 -219 10 -239 -6 -255 -13 -13 -20 -14 -34 -6
-15 10 -19 42 -29 245 -6 129 -17 278 -22 331 -6 53 -8 104 -5 112 7 19 53 21
59 4z"/>
<path d="M3800 3018 c-14 -8 -34 -29 -44 -49 -22 -41 -17 -75 18 -116 20 -23
32 -28 71 -28 40 0 51 5 76 33 39 43 39 90 2 132 -32 36 -85 47 -123 28z"/>
<path d="M3782 2525 c-36 -30 -47 -66 -32 -110 14 -43 49 -65 100 -65 93 0
133 111 63 176 -36 33 -91 33 -131 -1z"/>
<path d="M3802 2065 c-39 -17 -66 -72 -57 -116 4 -16 20 -40 37 -54 49 -41
119 -30 151 25 33 55 15 115 -43 145 -35 18 -46 18 -88 0z"/>
<path d="M1520 965 c-10 -13 -2 -33 52 -123 54 -90 69 -109 98 -119 50 -17
1730 -17 1780 0 29 10 44 29 99 120 87 147 92 143 -151 127 -453 -29 -1258
-30 -1663 0 -184 13 -200 13 -215 -5z"/>
</g>
</svg>
