<?xml version="1.0" standalone="no"?>
<!DOCTYPE svg PUBLIC "-//W3C//DTD SVG 20010904//EN"
 "http://www.w3.org/TR/2001/REC-SVG-20010904/DTD/svg10.dtd">
<svg version="1.0" xmlns="http://www.w3.org/2000/svg"
 width="512.000000pt" height="512.000000pt" viewBox="0 0 512.000000 512.000000"
 preserveAspectRatio="xMidYMid meet">

<g transform="translate(0.000000,512.000000) scale(0.100000,-0.100000)"
fill="#9898ed" stroke="none">
<path d="M2155 5020 c-38 -5 -112 -13 -163 -19 -138 -17 -213 -51 -289 -134
-122 -133 -166 -355 -144 -725 7 -108 15 -223 18 -254 l6 -57 -474 -3 -474 -3
-68 -33 c-120 -59 -203 -166 -227 -291 -6 -35 -10 -518 -10 -1357 l0 -1304
-145 0 c-201 0 -188 18 -183 -254 l3 -212 33 -66 c40 -82 119 -157 200 -190
l57 -23 2265 0 2265 0 57 23 c81 33 160 108 200 190 l33 66 3 212 c5 272 18
254 -183 254 l-145 0 0 1304 c0 839 -4 1322 -10 1357 -23 124 -108 232 -227
291 l-68 33 -503 3 c-438 2 -503 5 -498 17 3 8 13 52 22 97 22 109 15 275 -16
373 -112 353 -447 613 -890 689 -113 20 -346 28 -445 16z m430 -155 c465 -82
794 -399 795 -766 0 -68 -13 -159 -32 -218 l-10 -33 -71 133 c-118 226 -175
304 -260 363 -75 51 -159 70 -249 56 -142 -22 -344 -127 -379 -197 -27 -53
-39 -63 -81 -63 -43 0 -113 32 -187 85 -172 124 -275 66 -367 -205 l-28 -85
-8 75 c-5 41 -9 167 -10 280 -3 286 27 407 123 498 52 50 69 56 229 76 69 9
136 18 150 20 49 9 297 -3 385 -19z m338 -628 c46 -26 70 -61 232 -351 l128
-229 -12 -106 c-51 -442 -357 -771 -736 -789 -254 -12 -481 112 -644 351 -76
112 -140 295 -156 450 -7 67 -7 69 43 170 28 56 70 156 93 222 44 127 74 195
87 195 5 0 48 -26 98 -57 114 -73 168 -93 247 -93 82 0 130 27 180 103 34 51
48 62 130 102 140 69 227 78 310 32z m-1329 -634 c19 -231 85 -429 198 -596
48 -71 157 -181 226 -227 51 -34 72 -70 72 -124 0 -18 -2 -17 -27 6 -49 45
-63 48 -252 48 -361 0 -494 -44 -672 -221 -72 -71 -94 -101 -133 -180 -75
-151 -76 -160 -76 -761 0 -515 1 -529 20 -548 20 -20 33 -20 1610 -20 1577 0
1590 0 1610 20 19 19 20 33 20 548 0 601 -1 610 -76 761 -39 79 -61 109 -133
180 -129 128 -244 187 -414 210 -107 15 -542 14 -570 0 -12 -6 -34 -23 -49
-37 -27 -24 -28 -25 -28 -5 0 61 13 83 74 127 34 24 92 76 130 116 164 174
253 377 289 657 8 61 18 116 22 122 4 8 157 11 499 11 539 0 546 -1 617 -59
19 -16 48 -53 64 -82 l30 -54 0 -1325 0 -1325 -2085 0 -2085 0 0 1325 0 1325
30 54 c16 29 45 66 64 82 69 57 76 57 567 58 l451 1 7 -87z m756 -969 c114
-24 253 -17 401 21 l26 6 6 -78 5 -78 -141 -143 -142 -142 -142 142 -142 143
6 78 6 78 26 -6 c14 -4 55 -13 91 -21z m-135 -324 c223 -223 264 -260 289
-260 26 0 67 37 292 261 l262 261 258 -5 c207 -3 270 -8 314 -22 184 -57 324
-190 393 -371 22 -58 22 -69 25 -556 l3 -498 -1491 0 -1490 0 0 473 c0 517 1
533 60 652 67 136 196 247 345 295 63 21 137 27 315 29 l165 1 260 -260z
m-205 -1662 c0 -76 16 -124 58 -170 70 -78 68 -78 492 -78 424 0 422 0 492 78
42 46 58 94 58 170 l0 52 935 0 935 0 0 -133 c0 -167 -12 -209 -81 -271 -30
-27 -65 -48 -93 -55 -64 -16 -4428 -16 -4492 0 -28 7 -63 28 -93 55 -69 62
-81 104 -81 271 l0 133 935 0 935 0 0 -52z m960 7 c0 -51 -20 -99 -45 -109
-22 -8 -708 -8 -730 0 -25 10 -45 58 -45 109 l0 45 410 0 410 0 0 -45z"/>
</g>
</svg>
